HIERARCHY
ROOT Hips
{
	OFFSET 0.000000 0.000000 0.000000 
	CHANNELS 6 Xposition Yposition Zposition Zrotation Yrotation Xrotation
	JOINT LeftUpLeg
	{
		OFFSET 1.363060 -1.794630 0.839290 
		CHANNELS 3 Zrotation Yrotation Xrotation
		JOINT LeftLeg
		{
			OFFSET 2.448110 -6.726130 0.000000 
			CHANNELS 3 Zrotation Yrotation Xrotation
			JOINT LeftFoot
			{
				OFFSET 2.562200 -7.039590 0.000000 
				CHANNELS 3 Zrotation Yrotation Xrotation
				JOINT LeftToeBase
				{
					OFFSET 0.157640 -0.433110 2.322550 
					CHANNELS 3 Zrotation Yrotation Xrotation
					End Site
					{
						OFFSET 0.000000 0.000000 0.000000 
					}
				}
			}
		}
	}
	JOINT RightUpLeg
	{
		OFFSET -1.305520 -1.794630 0.839290 
		CHANNELS 3 Zrotation Yrotation Xrotation
		JOINT RightLeg
		{
			OFFSET -2.542530 -6.985550 0.000000 
			CHANNELS 3 Zrotation Yrotation Xrotation
			JOINT RightFoot
			{
				OFFSET -2.568260 -7.056230 0.000000 
				CHANNELS 3 Zrotation Yrotation Xrotation
				JOINT RightToeBase
				{
					OFFSET -0.164730 -0.452590 2.363150 
					CHANNELS 3 Zrotation Yrotation Xrotation
					End Site
					{
						OFFSET 0.000000 0.000000 0.000000 
					}
				}
			}
		}
	}
	JOINT Spine
	{
		OFFSET 0.028270 2.035590 -0.193380 
		CHANNELS 3 Zrotation Yrotation Xrotation
		JOINT Spine1
		{
			OFFSET 0.056720 2.048850 -0.042750 
			CHANNELS 3 Zrotation Yrotation Xrotation
			JOINT Neck1
			{
				OFFSET -0.054170 1.746240 0.172020 
				CHANNELS 3 Zrotation Yrotation Xrotation
				JOINT Head
				{
					OFFSET 0.104070 1.761360 -0.123970 
					CHANNELS 3 Zrotation Yrotation Xrotation
					End Site
					{
						OFFSET 0.000000 0.000000 0.000000 
					}
				}
			}
			JOINT LeftArm
			{
				OFFSET 3.362410 1.200890 -0.311210 
				CHANNELS 3 Zrotation Yrotation Xrotation
				JOINT LeftForeArm
				{
					OFFSET 4.983000 -0.000000 -0.000000 
					CHANNELS 3 Zrotation Yrotation Xrotation
					JOINT LeftHand
					{
						OFFSET 3.483560 -0.000000 -0.000000 
						CHANNELS 3 Zrotation Yrotation Xrotation
						JOINT LeftHandIndex1
						{
							OFFSET 0.715260 -0.000000 -0.000000 
							CHANNELS 3 Zrotation Yrotation Xrotation
							End Site
							{
								OFFSET 0.000000 0.000000 0.000000 
							}
						}
					}
				}
			}
			JOINT RightArm
			{
				OFFSET -3.136600 1.374050 -0.404650 
				CHANNELS 3 Zrotation Yrotation Xrotation
				JOINT RightForeArm
				{
					OFFSET -5.241900 -0.000000 -0.000000 
					CHANNELS 3 Zrotation Yrotation Xrotation
					JOINT RightHand
					{
						OFFSET -3.444170 -0.000000 -0.000000 
						CHANNELS 3 Zrotation Yrotation Xrotation
						JOINT RightHandIndex1
						{
							OFFSET -0.622530 -0.000000 -0.000000 
							CHANNELS 3 Zrotation Yrotation Xrotation
							End Site
							{
								OFFSET 0.000000 0.000000 0.000000 
							}
						}
					}
				}
			}
		}
	}
}
MOTION
Frames: 9
Frame Time: 0.041667
53.787454 17.142702 18.540017 -174.564661 -39.329818 178.643740 -16.883384 7.541737 -8.656480 0.803588 9.399400 25.191522 1.387435 -2.701684 -9.675908 0.000000 -0.020900 -0.057400 24.194917 7.863669 -8.841390 -1.322889 -11.740338 31.486479 0.874368 -6.893702 -12.176348 -0.000300 0.109300 -0.300300 1.472163 -0.689610 -1.211228 -1.735154 -0.247168 7.496701 7.520356 -3.483504 16.110490 0.710700 -1.017700 7.462900 -82.220584 0.911561 21.624542 4.896809 -17.024580 -1.706563 -1.575796 -1.833001 -13.506462 -7.125000 0.000000 0.000000 75.503700 -0.193541 19.868247 -13.577775 27.420080 -5.251927 1.622021 0.900503 -1.354633 7.125000 0.000000 0.000000 
53.786916 17.142487 18.551424 -174.589101 -39.330300 178.646876 -16.947939 7.660101 -8.700820 0.801358 9.393471 25.171410 1.372822 -2.636351 -9.678789 0.000800 -0.181400 -0.498400 24.128074 7.864221 -8.867794 -1.328729 -11.749103 31.512912 0.854958 -6.828472 -12.169633 -0.000100 0.052800 -0.145200 1.441466 -0.620190 -1.208952 -1.885595 -0.205500 7.468674 7.466849 -3.589752 16.084629 0.653000 -1.066300 7.425200 -81.710373 0.708308 22.344935 4.775503 -16.871166 -1.660744 -1.596977 -1.841308 -14.271163 -7.125000 0.000000 0.000000 75.611661 -0.151555 19.757351 -13.522954 27.362869 -5.228702 1.630756 0.903251 -1.251107 7.125000 0.000000 0.000000 
53.786809 17.142164 18.562185 -174.627669 -39.362947 178.655310 -16.995180 7.764426 -8.756278 0.799029 9.392341 25.161335 1.392927 -2.740004 -9.631281 0.001200 -0.226800 -0.623300 24.064698 7.847363 -8.869128 -1.323689 -11.735691 31.480148 0.883579 -6.913432 -12.129524 -0.000400 0.125700 -0.345400 1.443263 -0.631917 -1.211629 -1.803525 -0.219873 7.418339 7.432378 -3.612291 16.078496 0.634600 -1.083400 7.401200 -81.701461 0.664369 22.373624 4.623838 -16.668587 -1.611561 -1.614037 -1.816912 -14.347683 -7.125000 0.000000 0.000000 75.485476 -0.171784 19.906519 -13.528297 27.368594 -5.226034 1.620858 0.886505 -1.250234 7.125000 0.000000 0.000000 
53.782074 17.147975 18.572946 -174.692887 -39.360010 178.718474 -17.041871 7.433154 -8.715158 0.783059 9.391728 25.134499 1.401398 -2.814502 -9.486125 0.000200 0.081600 0.224300 23.955994 7.854257 -8.888716 -1.315299 -11.719256 31.435097 0.892539 -6.931899 -12.081861 -0.000300 0.111700 -0.306900 1.436283 -0.646209 -1.210084 -1.791003 -0.229673 7.462296 7.418446 -3.531022 16.093917 0.640700 -1.044600 7.433000 -81.360408 0.500645 24.086485 4.426658 -16.439864 -1.534107 -1.605807 -1.891910 -16.049727 -7.125000 0.000000 0.000000 75.408780 -0.087048 19.964847 -13.480694 27.315218 -5.203237 1.628999 0.900041 -1.232277 7.125000 0.000000 0.000000 
53.778630 17.153140 18.583384 -174.759038 -39.361815 178.778411 -17.095503 7.166595 -8.690715 0.769546 9.391989 25.112477 1.408285 -2.877630 -9.357083 0.002400 0.317000 0.871000 23.847865 7.856596 -8.900697 -1.304025 -11.697488 31.374769 0.909137 -6.973962 -12.026344 -0.000400 0.125200 -0.344000 1.424051 -0.632470 -1.210694 -1.801395 -0.223944 7.458129 7.395627 -3.527683 16.085054 0.629000 -1.044900 7.422300 -81.193460 0.405648 24.598760 4.300900 -16.275495 -1.490237 -1.611695 -1.903669 -16.558872 -7.125000 0.000000 0.000000 75.379051 -0.058863 19.985087 -13.443207 27.275295 -5.184790 1.630296 0.897584 -1.192551 7.125000 0.000000 0.000000 
53.774971 17.159058 18.593715 -174.833222 -39.359426 178.848395 -17.151437 6.850061 -8.655274 0.754519 9.392436 25.088524 1.414874 -2.942325 -9.217234 0.008500 0.596600 1.639400 23.733168 7.863248 -8.910506 -1.290217 -11.671594 31.302279 0.930924 -7.031557 -11.965452 -0.000500 0.147800 -0.406100 1.411423 -0.620095 -1.211192 -1.812086 -0.218424 7.455506 7.381448 -3.517646 16.068429 0.624200 -1.042200 7.406500 -81.095526 0.331839 24.829022 4.194919 -16.130264 -1.455918 -1.615011 -1.909627 -16.781928 -7.125000 0.000000 0.000000 75.358508 -0.029581 19.991395 -13.398918 27.227305 -5.163022 1.631517 0.895199 -1.144104 7.125000 0.000000 0.000000 
53.771743 17.164439 18.603830 -174.904119 -39.357305 178.913148 -17.210212 6.561099 -8.620206 0.739991 9.391725 25.063004 1.418896 -2.991894 -9.090617 0.017200 0.847800 2.330200 23.623928 7.876556 -8.919319 -1.278990 -11.650241 31.242927 0.948736 -7.079506 -11.919440 -0.000600 0.160800 -0.441900 1.396900 -0.605818 -1.211040 -1.838296 -0.210907 7.452260 7.370078 -3.510361 16.043337 0.619700 -1.040400 7.385700 -81.016134 0.252044 24.880212 4.101116 -15.994982 -1.427791 -1.616388 -1.913588 -16.824038 -7.125000 0.000000 0.000000 75.361345 0.000390 19.973607 -13.347796 27.171579 -5.138186 1.632706 0.891939 -1.090195 7.125000 0.000000 0.000000 
53.769483 17.168313 18.613838 -174.969706 -39.358200 178.964282 -17.271271 6.361664 -8.596669 0.727843 9.389253 25.036898 1.422066 -3.032166 -8.987825 0.025300 1.026500 2.821600 23.527573 7.895945 -8.923333 -1.271565 -11.634924 31.201878 0.964876 -7.126014 -11.892692 -0.000700 0.172200 -0.473100 1.383208 -0.593573 -1.210364 -1.858053 -0.205007 7.442267 7.371946 -3.497443 16.006832 0.624900 -1.036300 7.356800 -80.976724 0.179157 24.726686 4.024238 -15.877741 -1.407322 -1.617696 -1.911724 -16.663682 -7.125000 0.000000 0.000000 75.367552 0.022956 19.947144 -13.293156 27.111189 -5.111616 1.633042 0.887662 -1.033356 7.125000 0.000000 0.000000 
53.768300 17.170896 18.623953 -175.027323 -39.366028 178.998204 -17.332030 6.265714 -8.591051 0.718272 9.385070 25.010948 1.424966 -3.066194 -8.906909 0.030200 1.122600 3.086100 23.446753 7.921550 -8.922250 -1.268074 -11.626310 31.180531 0.976879 -7.164124 -11.889543 -0.000700 0.173100 -0.475600 1.371562 -0.588875 -1.208625 -1.868974 -0.203606 7.430106 7.372742 -3.482263 15.959339 0.629100 -1.031400 7.320100 -80.928503 0.095567 24.666438 3.954323 -15.772155 -1.388197 -1.617717 -1.913844 -16.598367 -7.125000 0.000000 0.000000 75.369880 0.046387 19.918935 -13.235212 27.046102 -5.083289 1.633003 0.884275 -0.983455 7.125000 0.000000 0.000000 
